<?xml version="1.0" encoding="UTF-8" standalone="no"?>
<svg
   viewBox="0 0 24 24"
   version="1.1"
   id="svg224"
   sodipodi:docname="linkedin-logo.svg"
   inkscape:version="1.2.2 (b0a8486541, 2022-12-01)"
   width="24"
   height="24"
   xmlns:inkscape="http://www.inkscape.org/namespaces/inkscape"
   xmlns:sodipodi="http://sodipodi.sourceforge.net/DTD/sodipodi-0.dtd"
   xmlns="http://www.w3.org/2000/svg"
   xmlns:svg="http://www.w3.org/2000/svg">
  <defs
     id="defs228" />
  <sodipodi:namedview
     id="namedview226"
     pagecolor="#ffffff"
     bordercolor="#000000"
     borderopacity="0.25"
     inkscape:showpageshadow="2"
     inkscape:pageopacity="0.0"
     inkscape:pagecheckerboard="0"
     inkscape:deskcolor="#d1d1d1"
     showgrid="false"
     inkscape:zoom="1.6582031"
     inkscape:cx="329.57362"
     inkscape:cy="128.15077"
     inkscape:window-width="1920"
     inkscape:window-height="1038"
     inkscape:window-x="0"
     inkscape:window-y="20"
     inkscape:window-maximized="1"
     inkscape:current-layer="svg224" />
  <!--!Font Awesome Free 6.6.0 by @fontawesome - https://fontawesome.com License - https://fontawesome.com/license/free Copyright 2024 Fonticons, Inc.-->
  <path
     d="M 22.285714,0 H 1.7089286 C 0.76607143,0 0,0.776786 0,1.730357 V 22.269643 C 0,23.223214 0.76607143,24 1.7089286,24 H 22.285714 C 23.228571,24 24,23.223214 24,22.269643 V 1.730357 C 24,0.776786 23.228571,0 22.285714,0 Z M 7.2535714,20.571429 H 3.6964286 V 9.117857 h 3.5625 V 20.571429 Z M 5.475,7.553571 c -1.1410714,0 -2.0625,-0.926785 -2.0625,-2.0625 0,-1.135714 0.9214286,-2.0625 2.0625,-2.0625 1.1357143,0 2.0625,0.926786 2.0625,2.0625 0,1.141072 -0.9214286,2.0625 -2.0625,2.0625 z M 20.5875,20.571429 H 17.030357 V 15 c 0,-1.328571 -0.02679,-3.0375 -1.848214,-3.0375 -1.853572,0 -2.1375,1.446429 -2.1375,2.941071 v 5.667858 H 9.4875 V 9.117857 H 12.9 v 1.564286 h 0.04821 c 0.476786,-0.9 1.639286,-1.848214 3.369643,-1.848214 3.6,0 4.269643,2.373214 4.269643,5.458928 z"
     id="path222"
     style="fill:#ffffff;stroke-width:0.0535714" />
</svg>
